<svg width="121" height="100" viewBox="0 0 121 100" fill="none" xmlns="http://www.w3.org/2000/svg">
<g opacity="0.1">
<path d="M108.7 36.9C106.9 36.7 105.6 36.4 104.7 36.2C103.6 35.8 102.7 34.9 102.4 33.8C102.2 33 102 31.9 102 30.5C102 29.1 102.2 28 102.4 27.2C102.5 26.7 102.8 26.3 103.1 25.9C100.1 23.5 96.2 22 92 22C82.1 22 74 30.1 74 40C74 49.9 82.1 58 92 58C101.9 58 110 49.9 110 40C110 39.5 110 39 109.9 38.6L108.7 36.9ZM92 53C88 53 84.5 51.2 82.1 48.4C82.7 45.6 86.9 45 90 45V42.9C88.3 42.5 87 40.9 87 39V34C87 31.2 89.2 29 92 29C94.8 29 97 31.2 97 34V39C97 40.9 95.7 42.4 94 42.9V45C97.1 45 101.4 45.6 101.9 48.4C99.5 51.2 96 53 92 53Z" fill="#716E6C"/>
<path d="M47.3 17.5C46.1 18.4 44.6 19 43 19C39.1 19 36 15.9 36 12C36 10.5 36.5 9.2 37.2 8C34.4 6.7 31.3 6 28 6C24.8 6 21.7 6.7 19 7.9C19 9.1 18.8 10 18.6 10.7C18.3 11.8 17.4 12.7 16.3 13.1C15.4 13.4 14.1 13.7 12.3 13.8L10 17L9.4 16.2C7.3 19.6 6 23.7 6 28C6 40.2 15.8 50 28 50C40.2 50 50 40.2 50 28C50 24.2 49 20.6 47.3 17.5ZM28 40.4C24.2 40.4 20.8 38.7 18.5 36C19 33.4 23.1 32.8 26.1 32.8V30.8C24.5 30.4 23.2 28.9 23.2 27.1V22.3C23.2 19.7 25.3 17.5 28 17.5C30.7 17.5 32.8 19.6 32.8 22.3V27C32.8 28.8 31.6 30.3 29.9 30.7V32.7C32.9 32.7 37 33.3 37.5 35.9C35.2 38.7 31.8 40.4 28 40.4Z" fill="#716E6C"/>
<path d="M92 62C79.8 62 70 52.2 70 40C70 28.6 78.7 19.2 89.8 18.1C82.8 16.4 73 15 60 15C56.2 15 52.8 15.1 49.6 15.3C51.7 19 53 23.4 53 28C53 41.8 41.8 53 28 53C21 53 14.7 50.1 10.2 45.5C10.1 46.9 10 48.4 10 50C10 57.4 11.1 63.3 12.4 67.6C14.2 73.7 18.9 78.5 25 80.4C26 80.7 27.1 81 28.4 81.4C28.1 80 28 78.5 28 77C28 62.1 40.1 50 55 50C69.9 50 82 62.1 82 77C82 79.3 81.7 81.4 81.2 83.5C87 82.6 91.5 81.5 95 80.4C101.1 78.5 105.8 73.7 107.6 67.6C108.7 63.8 109.7 58.8 109.9 52.7C106 58.3 99.4 62 92 62Z" fill="#716E6C"/>
<path d="M57 82V79.9C58.7 79.5 60 77.9 60 76V71C60 68.2 57.8 66 55 66C52.2 66 50 68.2 50 71V76C50 77.9 51.3 79.4 53 79.9V82C49.9 82 45.6 82.6 45.1 85.4C47.5 88.2 51.1 90 55 90C58.9 90 62.5 88.2 64.9 85.4C64.4 82.6 60.1 82 57 82Z" fill="#716E6C"/>
</g>
<path d="M55 100C42.3 100 32 89.7 32 77C32 64.3 42.3 54 55 54C67.7 54 78 64.3 78 77C78 89.7 67.7 100 55 100ZM55 56C43.4 56 34 65.4 34 77C34 88.6 43.4 98 55 98C66.6 98 76 88.6 76 77C76 65.4 66.6 56 55 56Z" fill="#716E6C"/>
<path d="M111 41C110.7 41 110.4 40.9 110.2 40.6L108.1 37.9C106.7 37.8 105.4 37.5 104.3 37.1C102.9 36.6 101.8 35.5 101.4 34C101.1 32.9 100.9 31.7 100.9 30.5C100.9 29.3 101.1 28 101.4 27C101.8 25.5 102.9 24.4 104.3 23.9C105.6 23.5 107.7 23 110.9 23C114.1 23 116.3 23.5 117.5 23.9C118.9 24.4 120 25.5 120.4 27C120.7 28.1 120.9 29.3 120.9 30.5C120.9 31.7 120.7 33 120.4 34C120 35.5 118.9 36.6 117.5 37.1C116.4 37.5 115.2 37.7 113.7 37.9L111.6 40.6C111.6 40.9 111.3 41 111 41ZM111 25C108.1 25 106.1 25.4 105 25.8C104.2 26.1 103.6 26.7 103.4 27.5C103.1 28.4 103 29.4 103 30.5C103 31.6 103.1 32.6 103.4 33.5C103.6 34.3 104.2 34.9 105 35.2C105.7 35.4 107 35.7 108.8 35.9C109.1 35.9 109.3 36.1 109.5 36.3L111 38.3L112.5 36.3C112.7 36.1 112.9 35.9 113.2 35.9C115 35.7 116.2 35.4 117 35.2C117.8 34.9 118.4 34.3 118.6 33.5C118.9 32.6 119 31.6 119 30.5C119 29.4 118.9 28.4 118.6 27.5C118.4 26.7 117.8 26.1 117 25.8C115.9 25.4 113.9 25 111 25Z" fill="#716E6C"/>
<path d="M43 15C44.6569 15 46 13.6569 46 12C46 10.3431 44.6569 9 43 9C41.3431 9 40 10.3431 40 12C40 13.6569 41.3431 15 43 15Z" fill="#716E6C"/>
<path d="M10 18C9.7 18 9.4 17.9 9.2 17.6L7.1 14.9C5.7 14.8 4.4 14.5 3.3 14.1C2 13.6 0.9 12.5 0.5 11C0.2 10 0 8.8 0 7.5C0 6.2 0.2 5 0.5 4C0.9 2.5 2 1.4 3.4 0.9C4.6 0.5 6.8 0 10 0C13.2 0 15.4 0.5 16.6 0.9C18 1.4 19.1 2.5 19.5 4C19.8 5 20 6.2 20 7.5C20 8.8 19.8 10 19.5 11C19.1 12.5 18 13.6 16.6 14.1C15.5 14.5 14.3 14.7 12.8 14.9L10.7 17.6C10.6 17.9 10.3 18 10 18ZM10 2C7.1 2 5.1 2.4 4 2.8C3.2 3.1 2.6 3.7 2.4 4.5C2.1 5.4 2 6.4 2 7.5C2 8.6 2.1 9.6 2.4 10.5C2.6 11.3 3.2 11.9 4 12.2C4.7 12.4 6 12.7 7.8 12.9C8.1 12.9 8.3 13.1 8.5 13.3L10 15.3L11.5 13.3C11.7 13.1 11.9 12.9 12.2 12.9C14 12.7 15.2 12.4 16 12.2C16.8 11.9 17.4 11.3 17.6 10.5C17.9 9.6 18 8.6 18 7.5C18 6.4 17.9 5.4 17.6 4.5C17.4 3.7 16.8 3.1 16 2.8C14.9 2.4 12.9 2 10 2Z" fill="#716E6C"/>
</svg>
